<svg xmlns="http://www.w3.org/2000/svg" version="1.1" xmlns:xlink="http://www.w3.org/1999/xlink" width="309.09" height="451.84"><svg xmlns="http://www.w3.org/2000/svg" viewBox="0 0 309.09 451.84"><polygon points="209.98 0 46.13 195.16 263.51 249.14 209.98 0" style="fill:#ab3732"></polygon><path d="M160.32,377.2,97.68,451.84,77.09,355.93c18.26,10.4,45,21.2,77.42,21.36h.73C156.81,377.29,158.51,377.27,160.32,377.2Z" style="fill:#264f99"></path><path d="M261.47,256.66q-37.71,45-75.43,89.89l-7.26,8.65a130,130,0,0,1-24.17,2.09c-40.2-.19-70.33-19.11-83.48-29.12L44.2,202.72Z" style="fill:#264f99"></path><circle cx="153.4" cy="226.12" r="31.46"></circle><path d="M154.56,68.23C64.16,68.23,1.67,148,0,222.54-1.42,288.63,46.15,333.12,51.58,338a153.68,153.68,0,0,0,25.51,17.95l-6-27.76c-2.95-2.26-5-4.06-6.22-5.1C60.19,318.84,18.77,280.12,20,223c.71-32.43,14.61-65.75,38.12-91.42C83.73,103.62,118,88.23,154.56,88.23c74.18,0,134.53,60.35,134.53,134.53,0,71.44-59.91,119.43-102.45,130.69-2.65.7-5.28,1.28-7.86,1.75q-9.22,11-18.46,22a141.44,141.44,0,0,0,31.43-4.42c28-7.42,56.51-25.66,78.11-50,17.9-20.2,39.23-53.94,39.23-100C309.09,137.55,239.77,68.23,154.56,68.23Z" style="fill:#264f99"></path><path d="M178.78,355.2q-9.22,11-18.46,22c-1.81.07-3.51.09-5.08.09h-.73c-32.42-.16-59.16-11-77.42-21.36l-6-27.76c13.15,10,43.28,28.93,83.48,29.12A130,130,0,0,0,178.78,355.2Z" style="fill:#ab3732"></path></svg><style>@media (prefers-color-scheme: light) { :root { filter: none; } }
@media (prefers-color-scheme: dark) { :root { filter: none; } }
</style></svg>